<svg version="1.1" id="Layer_1" xmlns="http://www.w3.org/2000/svg" x="0" y="0" viewBox="0 0 265 112" xml:space="preserve"><style>.st1{fill:#5eb35f}</style><path d="M31.8 59.6c.3-1.1.8-2.9 1-3.8.1-.3-.1-.5-.4-.5H20.9L1 91.6l5.7 8.8s9.5-.8 14.2-1.2v6.5c-.3 1.1-.7 2.9-.9 3.8-.1.3.2.5.4.5l12-1c.3 0 .4-.3.4-.5-.2-.8-.7-2.5-1-3.5v-6.8l2.1-.2c.2 0 .4-.2.4-.4l.8-8.1c0-.3-.2-.5-.4-.5l-2.8.2-.1-29.6zM20.9 73.4v16.4c-2 .2-5.2.3-7.8.4 0 .1 5.6-11.2 7.8-16.8zm46.4-18.2H42c-.3 0-.5.2-.4.5.2.9.7 2.8 1 3.9v44.7c-.3 1.1-.7 2.7-.9 3.6-.1.3.1.5.4.5l12-.8c.3 0 .4-.3.4-.5-.2-.8-.7-2.2-.9-3.5l.1-15.3c4-.2 11.7-.5 11.7-.5l10-9.4v-16l-8.1-7.2zm-6.5 23.1l-7.4.1V66.2c2.1 0 5.6 0 7.8-.1l3.3 2.7v6.4c.1.1-3.6 3.2-3.7 3.1zm50.7-23.1H81.7c-.3 0-.5.3-.4.5.3.9.8 2.8 1.1 3.8l-.1 42.3c-.3 1-1 2.9-1.3 3.8-.1.3.1.6.4.6l13.9-.5c.3 0 .5-.3.4-.6-.4-.9-1.2-2.6-1.5-3.8V86.8c1.5 0 3.4-.1 4.9-.1 1.1.3 3 1.3 4 1.8.3.1.6-.1.6-.4V75.9c0-.3-.3-.5-.6-.4-1 .5-3 1.6-4.1 1.9-1.5 0-3.4 0-4.8.1V65.9h10.9l6 1.9c.3.1.5-.1.5-.4l-.1-12.2zm36.5 7.1c-2.6-2.3-8.1-7.1-8.1-7.1h-14.2l-8.4 7.4V98l8.5 7.4H140s5.5-4.9 8.1-7.1l-.1-36zm-16.9 32.2c-.6-.3-2.7-2.3-2.7-2.3V68.6l2.7-2.3h3.2l2.7 2.3v23.6s-2.1 2.1-2.7 2.3h-3.2zm56-32.2c-2.6-2.3-8.1-7.1-8.1-7.1h-14.2l-8.4 7.4V98l8.5 7.8 13.8.4s5.9-5.6 8.4-7.9v-36zm-16.9 32.2c-.6-.3-2.7-2.3-2.7-2.3V68.6l2.7-2.3h3.2l2.7 2.3v23.6s-2.1 2.1-2.7 2.3h-3.2zm55.3-31.1c-2.7-2.6-5.5-5.2-8.4-7.9l-.3-.3h-22.1c-.3 0-.5.2-.4.5.2.9.7 2.8 1 3.9v42.7c-.3 1-.8 3-1 3.9-.1.3.1.5.4.5l22.2 1.3s6-5.1 8.7-7.5l.4-.3V63.7l-.5-.3zm-15 33.1c-1.9-.1-4.4-.3-4.4-.3V66c2.6 0 2.4 0 4.3.1l3.6 3.4v23.9l-3.5 3.1zm34.3-25.8v-2.5l2.6-2.1 10.3.7 5.7 1.9c.3.1.6-.1.5-.5L262.3 57l-20.5-1.7-8.4 8V74l3.3 5.8 13.7 10.1 2.7 3.8v2.7l-3.2 3s-10.1-.8-10.1-.7l-5.7-2.4c-.3-.1-.6.1-.6.4l1.1 12.5 20.9 1.8 8.5-6.9V89.9l-3.6-6.4-14.1-10.3-1.5-2.5z" fill="#275c36"/><path class="st1" d="M131.3 11.2h-2.5v11.5h-2.3c-.6 0-1.1-.3-1.4-.7-.3-.4-.5-1-.3-1.5l2.2-9.2h-2.6l-2 8.6c-.3 1.3 0 2.6.8 3.7.8 1 2.1 1.6 3.4 1.6h2.3v4.5h2.5v-4.5h1.1v-2.5h-1.1V11.2zm9.8 0h-7.4v18.5h2.5v-16h2.8l1.3 6.9c.1.5 0 1.1-.4 1.5-.3.4-.9.7-1.4.7h-1.1v2.5h1.1c1.3 0 2.5-.6 3.3-1.6.8-1 1.2-2.3.9-3.5l-1.6-9z"/><path class="st1" d="M132.5 1c-10.5 0-19.1 8.6-19.1 19.1s8.6 19.1 19.1 19.1 19.1-8.6 19.1-19.1S143 1 132.5 1zm0 35.7c-9.1 0-16.6-7.4-16.6-16.6 0-3.7 1.2-7.1 3.3-9.9l1.2-1.5c3-3.2 7.3-5.2 12.1-5.2 9.1 0 16.6 7.4 16.6 16.6s-7.5 16.6-16.6 16.6z"/></svg>