<svg version="1.1" id="Layer_1" xmlns="http://www.w3.org/2000/svg" x="0" y="0" viewBox="0 0 160 160" xml:space="preserve"><style>.st0{fill:#fff}</style><path class="st0" d="M75.4 52.2l-7.4.3 1.2 34-6.7.2c-1.7.1-3.2-.6-4.3-1.9-1.1-1.3-1.5-2.9-1.2-4.6l5.5-27.6-7.5.4-5.1 25.9c-.8 3.9.3 7.8 2.8 10.8 2.5 3 6.3 4.6 10.2 4.5l6.7-.2.5 13.4 7.4-.3-.5-13.4 3.3-.1-.3-7.4-3.3.1-1.3-34.1zm28.9-1l-2.9.1-4.6.2-3.3.1-3.7.1-1.6.1-5.8.2 1.2 34 .3 7.4.5 13.4 7.4-.3-.5-13.4-.3-7.4-1-26.8 3.7-.1 4.7-.2 4.6 20.2c.4 1.6 0 3.2-1 4.5-1 1.3-2.5 2-4.1 2.1l-3.2.1.3 7.4 3.2-.1c3.8-.1 7.3-2 9.7-5 2.3-3 3.2-6.9 2.3-10.6l-5.9-26z"/><path class="st0" d="M77.8 21.8c-31.2 1.1-55.7 27.4-54.6 58.6s27.4 55.7 58.6 54.6c31.2-1.1 55.7-27.4 54.6-58.6S109 20.7 77.8 21.8zm3.8 105.8c-27.1 1-50-20.3-51-47.5-.4-11 2.8-21.2 8.6-29.6 1.1-1.6 2.3-3.1 3.5-4.6C51.3 36 63.9 29.6 78 29.1c27.1-1 50 20.3 51 47.5s-20.2 50.1-47.4 51zM11 63l-.4 1.7 3.1.7-.5 2.2L3 65.3l.9-4.2c.5-2.4 2.3-3.6 4.4-3.1 2.4.6 3.2 2.7 2.7 5zm-3.2-2.7c-1-.2-1.7.4-1.9 1.5l-.4 1.7 3.1.7.4-1.7c.3-1.2-.3-2-1.2-2.2zm9.7-7c-1.1 2.6-3.1 3.6-6 2.4L6 53.5l.9-2.1 5.5 2.2c1.6.6 2.7.2 3.2-1.1s.1-2.4-1.5-3l-5.5-2.2.9-2.1 5.5 2.2c2.7 1.1 3.5 3.3 2.5 5.9zm6.3-12.4l-4 .1-1 1.5 2.8 1.8-1.2 1.9-8.8-5.5 2.5-4c1.3-2.1 3.2-2.7 5-1.5 1.4.9 1.8 2.2 1.6 3.6l4.5-.2-1.4 2.3zM18 37.3c-.8-.5-1.6-.2-2.2.7l-1.2 1.9 2.5 1.6 1.2-2c.6-.9.4-1.7-.3-2.2zm9-5.6L25.9 33l2.4 2.1-1.5 1.7-7.8-6.9 2.8-3.2c1.6-1.9 3.7-2 5.3-.6 1.8 1.6 1.5 3.8-.1 5.6zm-1.5-3.9c-.8-.7-1.7-.5-2.4.4L22 29.5l2.4 2.1 1.2-1.4c.7-.8.6-1.8-.1-2.4zm12.4-1.9c-2.5 2-5.8 1.6-7.7-.7-1.8-2.3-1.5-5.7 1-7.7s5.8-1.6 7.7.7c1.8 2.3 1.5 5.7-1 7.7zm-.9-6.2c-1.1-1.4-3.1-1.7-4.5-.6-1.4 1.2-1.5 3.1-.4 4.5s3.1 1.7 4.5.6c1.5-1.2 1.6-3.1.4-4.5zm10.8-.4c-1.4.8-3 1-4.7.7l.4-2.1c1.2.2 2.3.2 3.3-.4.8-.5 1.1-1 .8-1.6-.3-.5-.7-.6-2.5-.2-2.1.5-3.6.7-4.6-1.1-.9-1.7-.2-3.5 1.7-4.5 1.3-.7 2.7-.9 4-.7l-.2 2.1c-1.1-.1-2.1 0-2.9.4-.8.4-1 1-.7 1.4.3.6.8.6 2.6.1 2.1-.5 3.5-.4 4.4 1.2 1.2 1.8.3 3.6-1.6 4.7zm5.7-3.1L50 6.4l7.4-2.7.7 1.9-5.3 1.9.7 2 4.6-1.7.7 1.9-4.6 1.7.7 2.1 5.3-1.9.7 1.9-7.4 2.7zM77 7.6l-.1-2.4 2.4-.1.1 2.4-2.4.1zm26.2 4.2l-1.6-.6-1 3-2.2-.8 3.4-9.9 4 1.4c2.4.8 3.3 2.7 2.6 4.7-.8 2.4-3 3-5.2 2.2zm2.9-2.8c.3-1-.2-1.7-1.2-2.1l-1.7-.6-1 3 1.7.6c1.1.4 1.9 0 2.2-.9zm2.2 8.2l4.9-9.2 6.9 3.7-1 1.8-4.9-2.6-1 1.9 4.3 2.3-1 1.8-4.3-2.3-1 1.9 5 2.7-1 1.8-6.9-3.8zm13.2 8.4c-2.5-2-2.9-5.3-1-7.6 1.8-2.3 5.2-2.8 7.7-.8s2.9 5.3 1 7.6c-1.9 2.4-5.2 2.8-7.7.8zm5.8-2.2c1.1-1.4 1-3.4-.4-4.5-1.5-1.1-3.4-.8-4.5.6s-1 3.4.4 4.5 3.4.8 4.5-.6zm5.5 8.5l-1.2-1.3-2.3 2.1-1.5-1.7 7.8-6.9 2.8 3.2c1.7 1.9 1.5 4 0 5.4-1.8 1.5-4 .9-5.6-.8zm4-1.1c.8-.7.7-1.6-.1-2.4l-1.2-1.3-2.4 2.1 1.2 1.4c.9.8 1.8.9 2.5.2zm-2.1 8.3l8.8-5.7 1.2 1.9-7 4.5 2.8 4.4-1.8 1.1-4-6.2zm5.2 8.4l9.5-4.3 3.2 7.2-1.9.8-2.3-5.1-1.9.9 2 4.5-1.9.8-2-4.5-2 .9 2.3 5.2-1.9.8-3.1-7.2zM5.4 76.9h2.4v2.4H5.4v-2.4zm2.4 21.5l-.5-1.7-3 .8-.6-2.2 10.1-2.7 1.1 4.1c.7 2.4-.4 4.2-2.4 4.8-2.4.6-4.1-.9-4.7-3.1zm4 .9c1-.3 1.3-1.1 1-2.2l-.5-1.7-3.1.8.5 1.8c.4 1 1.2 1.5 2.1 1.3zm-4.5 7.5l9.5-4.2.9 2.1-7.6 3.4 2.1 4.8-1.9.8-3-6.9zm9 16.8l1.4-2.1-2.4-3.7-2.5.5-1.3-2 11.2-2 1.2 1.8-6.3 9.5-1.3-2zm4.8-6.9l-3.6.7 1.5 2.3 2.1-3zm4 17.2l1.3-8.2-4.8 4.6-1.6-1.6 7.6-7.2 1.5 1.5-1.3 8 4.7-4.4 1.6 1.6-7.6 7.2-1.4-1.5zm4.9 4.4l6.3-8.3 6.3 4.7-1.2 1.6-4.5-3.4-1.3 1.7 3.9 3-1.2 1.6-3.9-3-1.3 1.7 4.5 3.4-1.2 1.6-6.4-4.6zm17.9 1.9l-3.9 7.3-2-1.1 3.9-7.3-2.8-1.5 1-1.9 7.6 4.1-1 1.9-2.8-1.5zM62 150.7l.5-2.3 2.4.5-.5 2.3-2.4-.5zm21.5 2.3l-1.7.1.2 3.1-2.3.1-.6-10.3 4.3-.2c2.5-.1 4.1 1.3 4.2 3.4.1 2.4-1.7 3.7-4.1 3.8zm1.7-3.7c-.1-1-.8-1.5-1.9-1.5l-1.8.1.2 3.2 1.8-.1c1.2-.1 1.8-.8 1.7-1.7zm12.6 4.9l-2.9-2.8-1.8.4.7 3.3-2.2.5-2.1-10.2 4.7-1c2.4-.5 4.1.5 4.5 2.6.3 1.6-.3 2.9-1.5 3.6l3.2 3.1-2.6.5zm-1.3-6.7c-.2-1-1-1.3-2.1-1.1l-2.2.5.6 2.9 2.3-.5c1-.2 1.6-.9 1.4-1.8zm12.6 3.3c-3 1.2-6-.2-7.1-2.9-1.1-2.7.1-5.9 3.1-7.1 3-1.2 6 .2 7.1 2.9 1.1 2.8-.2 5.9-3.1 7.1zm.9-6.2c-.7-1.7-2.4-2.5-4.2-1.9-1.7.7-2.4 2.5-1.7 4.2.7 1.7 2.4 2.5 4.2 1.9 1.7-.7 2.4-2.5 1.7-4.2zm11 .1c-1.3.8-3 1.2-4.6.9l.3-2.1c1.2.2 2.3.1 3.3-.6.8-.5 1.1-1.1.8-1.6-.3-.5-.8-.6-2.5 0-2.1.7-3.5.9-4.6-.9-1-1.6-.4-3.5 1.4-4.6 1.3-.8 2.6-1.1 4-.9l-.1 2.1c-1.1-.1-2.1.1-2.8.6-.7.5-.9 1-.7 1.5.4.6.9.5 2.6 0 2.1-.6 3.5-.6 4.5.9 1.1 1.7.3 3.5-1.6 4.7zm7.5-9.6l-1.3 1.1 2 2.4-1.7 1.5-6.8-7.9 3.2-2.8c1.9-1.6 4-1.5 5.4.2 1.6 1.8 1 4-.8 5.5zm-.9-4c-.7-.8-1.6-.7-2.4 0l-1.3 1.1 2.1 2.4 1.4-1.2c.7-.6.8-1.6.2-2.3zm8.8 1l-7.9-6.8 5.1-6 1.5 1.3-3.6 4.2 1.6 1.4 3.2-3.7 1.5 1.3-3.2 3.7 1.7 1.4 3.7-4.3 1.5 1.3-5.1 6.2zm10.9-14.8l-4 .2-.9 1.5 2.8 1.7-1.2 2-8.9-5.5 2.5-4.1c1.3-2.1 3.2-2.7 5-1.5 1.4.9 1.9 2.2 1.6 3.6l4.5-.2-1.4 2.3zm-5.8-3.6c-.8-.5-1.6-.2-2.2.8l-1.2 1.9 2.5 1.6 1.2-2c.7-1 .5-1.9-.3-2.3zm8.8-2.1l-9.5-4.3.9-2.1 9.5 4.3-.9 2.1zm-3.8-13.2l7.9 2.5-.7 2.2-7.9-2.5-1 3-2-.6 2.6-8.2 2 .6-.9 3zm6.4-10.1l4.1.6-.3 2.3-4.1-.6-6.8 3 .4-2.7 4.5-1.8-3.8-3.1.4-2.6 5.6 4.9zm.9-18l-2.4.3-.3-2.4 2.4-.3.3 2.4z"/></svg>