<svg xmlns="http://www.w3.org/2000/svg" viewBox="0 0 182 40"><path d="M22.5 4c.2-.7.5-2 .7-2.6 0-.2-.1-.3-.3-.3h-7.8L1.5 25.8l3.9 6s6.5-.5 9.6-.8v4.4c-.2.8-.5 2-.6 2.6 0 .2.1.4.3.3l8.2-.7c.2 0 .3-.2.2-.4-.2-.6-.5-1.7-.7-2.4v-4.6l1.4-.1c.1 0 .2-.1.3-.3l.6-5.5c0-.2-.1-.3-.3-.3l-1.9.1V4zm-7.4 9.4v11.2c-1.3.1-3.5.2-5.3.3 0 0 3.8-7.7 5.3-11.5zM46.7 1H29.4c-.2 0-.3.2-.3.3.2.7.5 2 .7 2.7v30.4c-.2.7-.5 1.9-.6 2.5 0 .2.1.4.3.3l8.2-.5c.2 0 .3-.2.3-.4-.2-.5-.4-1.5-.6-2.4l.1-10.4c2.7-.1 8-.3 8-.3l6.8-6.4V5.9L46.7 1zm-4.5 15.7l-5 .1V8.5h5.3l2.3 1.8v4.3c0 .1-2.5 2.2-2.6 2.1zM76.7 1H56.4c-.2 0-.3.2-.3.4.2.6.6 1.9.8 2.6v28.8c-.2.7-.7 2-.9 2.6-.1.2.1.4.3.4l9.5-.3c.2 0 .3-.2.2-.4-.3-.6-.8-1.7-1.1-2.6v-9.9c1 0 2.3 0 3.3-.1.7.2 2.1.9 2.7 1.3.2.1.4 0 .4-.2v-8.3c0-.2-.2-.4-.4-.2-.7.4-2 1.1-2.8 1.3h-3.3V8.5h7.4l4.1 1.3c.2.1.4-.1.4-.3V1zm24.8 4.8C99.8 4.3 96 1 96 1h-9.6l-5.7 5v24.1l5.8 5H96s3.7-3.3 5.5-4.9V5.8zM90 27.8c-.4-.2-1.8-1.6-1.8-1.6v-16L90 8.6h2.2l1.9 1.6v16.1s-1.4 1.4-1.9 1.6c-.9-.1-1.2-.1-2.2-.1zm38.1-22c-1.8-1.5-5.5-4.8-5.5-4.8H113l-5.7 5v24.1l5.8 5.3 9.4.2s4-3.8 5.7-5.4l-.1-24.4zm-11.5 22c-.4-.2-1.8-1.6-1.8-1.6v-16l1.9-1.6h2.2l1.9 1.6v16.1s-1.4 1.4-1.9 1.6c-1-.1-1.3-.1-2.3-.1zm37.6-21.2c-1.8-1.8-3.8-3.6-5.7-5.4l-.2-.2h-15.1c-.2 0-.3.2-.3.3.1.6.5 1.9.6 2.6V33c-.2.7-.5 2-.7 2.7 0 .2.1.3.3.3l15.1.9s4.1-3.5 5.9-5.1l.3-.2V6.8l-.2-.2zm-10.1 22.5c-1.3-.1-3-.2-3-.2V8.4h2.9l2.5 2.3V27l-2.4 2.1zm23.3-17.6V9.8l1.8-1.4 7 .5 3.8 1.3c.2.1.4-.1.4-.3l-1.1-7.7L165.4 1l-5.7 5.4v7.3l2.2 4 9.3 6.9 1.8 2.6V29s-2.2 2-2.2 2.1l-6.9-.5L160 29c-.2-.1-.4.1-.4.3l.8 8.5 14.2 1.2 5.8-4.7v-9.7l-2.4-4.4-9.6-7-1-1.7z" fill="#5eb35f"/></svg>