<?xml version="1.0" encoding="utf-8"?>
<!-- Generator: Adobe Illustrator 20.1.0, SVG Export Plug-In . SVG Version: 6.00 Build 0)  -->
<svg version="1.1" id="Layer_1" xmlns="http://www.w3.org/2000/svg" xmlns:xlink="http://www.w3.org/1999/xlink" x="0px" y="0px"
	 viewBox="0 0 160 160" style="enable-background:new 0 0 160 160;" xml:space="preserve">
<style type="text/css">
	.st0{fill:#FFFFFF;}
</style>
<g>
	<g>
		<path class="st0" d="M75.4,52.2l-7.4,0.3l1.2,34l-6.7,0.2c-1.7,0.1-3.2-0.6-4.3-1.9c-1.1-1.3-1.5-2.9-1.2-4.6l5.5-27.6L55,53
			l-5.1,25.9c-0.8,3.9,0.3,7.8,2.8,10.8c2.5,3,6.3,4.6,10.2,4.5l6.7-0.2l0.5,13.4l7.4-0.3l-0.5-13.4l3.3-0.1l-0.3-7.4l-3.3,0.1
			L75.4,52.2z"/>
		<path class="st0" d="M104.3,51.2l-2.9,0.1l-4.6,0.2l-3.3,0.1l-3.7,0.1l-1.6,0.1L82.4,52l1.2,34l0.3,7.4l0.5,13.4l7.4-0.3
			l-0.5-13.4L91,85.7l-1-26.8l3.7-0.1l4.7-0.2l4.6,20.2c0.4,1.6,0,3.2-1,4.5c-1,1.3-2.5,2-4.1,2.1l-3.2,0.1l0.3,7.4l3.2-0.1
			c3.8-0.1,7.3-2,9.7-5c2.3-3,3.2-6.9,2.3-10.6L104.3,51.2z"/>
		<path class="st0" d="M77.8,21.8c-31.2,1.1-55.7,27.4-54.6,58.6s27.4,55.7,58.6,54.6c31.2-1.1,55.7-27.4,54.6-58.6
			S109,20.7,77.8,21.8z M81.6,127.6c-27.1,1-50-20.3-51-47.5c-0.4-11,2.8-21.2,8.6-29.6c1.1-1.6,2.3-3.1,3.5-4.6
			c8.6-9.9,21.2-16.3,35.3-16.8c27.1-1,50,20.3,51,47.5C130,103.8,108.8,126.7,81.6,127.6z"/>
	</g>
	<g>
		<path class="st0" d="M11,63l-0.4,1.7l3.1,0.7l-0.5,2.2L3,65.3l0.9-4.2c0.5-2.4,2.3-3.6,4.4-3.1l0,0C10.7,58.6,11.5,60.7,11,63z
			 M7.8,60.3c-1-0.2-1.7,0.4-1.9,1.5l-0.4,1.7l3.1,0.7L9,62.5C9.3,61.3,8.7,60.5,7.8,60.3L7.8,60.3z"/>
		<path class="st0" d="M17.5,53.3c-1.1,2.6-3.1,3.6-6,2.4l-5.5-2.2l0.9-2.1l5.5,2.2c1.6,0.6,2.7,0.2,3.2-1.1c0.5-1.3,0.1-2.4-1.5-3
			l-5.5-2.2l0.9-2.1l5.5,2.2C17.7,48.5,18.5,50.7,17.5,53.3z"/>
		<path class="st0" d="M23.8,40.9l-4,0.1l-1,1.5l2.8,1.8l-1.2,1.9l-8.8-5.5l2.5-4c1.3-2.1,3.2-2.7,5-1.5l0,0
			c1.4,0.9,1.8,2.2,1.6,3.6l4.5-0.2L23.8,40.9z M18,37.3c-0.8-0.5-1.6-0.2-2.2,0.7l-1.2,1.9l2.5,1.6l1.2-2
			C18.9,38.6,18.7,37.8,18,37.3L18,37.3z"/>
		<path class="st0" d="M27,31.7L25.9,33l2.4,2.1l-1.5,1.7l-7.8-6.9l2.8-3.2c1.6-1.9,3.7-2,5.3-0.6l0,0C28.9,27.7,28.6,29.9,27,31.7z
			 M25.5,27.8c-0.8-0.7-1.7-0.5-2.4,0.4L22,29.5l2.4,2.1l1.2-1.4C26.3,29.4,26.2,28.4,25.5,27.8L25.5,27.8z"/>
		<path class="st0" d="M37.9,25.9c-2.5,2-5.8,1.6-7.7-0.7l0,0c-1.8-2.3-1.5-5.7,1-7.7c2.5-2,5.8-1.6,7.7,0.7l0,0
			C40.7,20.5,40.4,23.9,37.9,25.9z M37,19.7c-1.1-1.4-3.1-1.7-4.5-0.6c-1.4,1.2-1.5,3.1-0.4,4.5l0,0c1.1,1.4,3.1,1.7,4.5,0.6
			C38.1,23,38.2,21.1,37,19.7L37,19.7z"/>
		<path class="st0" d="M47.8,19.3c-1.4,0.8-3,1-4.7,0.7l0.4-2.1c1.2,0.2,2.3,0.2,3.3-0.4c0.8-0.5,1.1-1,0.8-1.6l0,0
			c-0.3-0.5-0.7-0.6-2.5-0.2c-2.1,0.5-3.6,0.7-4.6-1.1l0,0c-0.9-1.7-0.2-3.5,1.7-4.5c1.3-0.7,2.7-0.9,4-0.7l-0.2,2.1
			c-1.1-0.1-2.1,0-2.9,0.4c-0.8,0.4-1,1-0.7,1.4l0,0c0.3,0.6,0.8,0.6,2.6,0.1c2.1-0.5,3.5-0.4,4.4,1.2l0,0
			C50.6,16.4,49.7,18.2,47.8,19.3z"/>
		<path class="st0" d="M53.5,16.2L50,6.4l7.4-2.7l0.7,1.9l-5.3,1.9l0.7,2l4.6-1.7l0.7,1.9l-4.6,1.7l0.7,2.1l5.3-1.9l0.7,1.9
			L53.5,16.2z"/>
		<path class="st0" d="M77,7.6l-0.1-2.4l2.4-0.1l0.1,2.4L77,7.6z"/>
		<path class="st0" d="M103.2,11.8l-1.6-0.6l-1,3l-2.2-0.8l3.4-9.9l4,1.4c2.4,0.8,3.3,2.7,2.6,4.7l0,0
			C107.6,12,105.4,12.6,103.2,11.8z M106.1,9c0.3-1-0.2-1.7-1.2-2.1l-1.7-0.6l-1,3l1.7,0.6C105,10.3,105.8,9.9,106.1,9L106.1,9z"/>
		<path class="st0" d="M108.3,17.2l4.9-9.2l6.9,3.7l-1,1.8l-4.9-2.6l-1,1.9l4.3,2.3l-1,1.8l-4.3-2.3l-1,1.9l5,2.7l-1,1.8L108.3,17.2
			z"/>
		<path class="st0" d="M121.5,25.6c-2.5-2-2.9-5.3-1-7.6l0,0c1.8-2.3,5.2-2.8,7.7-0.8s2.9,5.3,1,7.6l0,0
			C127.3,27.2,124,27.6,121.5,25.6z M127.3,23.4c1.1-1.4,1-3.4-0.4-4.5c-1.5-1.1-3.4-0.8-4.5,0.6l0,0c-1.1,1.4-1,3.4,0.4,4.5
			C124.2,25.1,126.2,24.8,127.3,23.4L127.3,23.4z"/>
		<path class="st0" d="M132.8,31.9l-1.2-1.3l-2.3,2.1l-1.5-1.7l7.8-6.9l2.8,3.2c1.7,1.9,1.5,4,0,5.4l0,0
			C136.6,34.2,134.4,33.6,132.8,31.9z M136.8,30.8c0.8-0.7,0.7-1.6-0.1-2.4l-1.2-1.3l-2.4,2.1l1.2,1.4
			C135.2,31.4,136.1,31.5,136.8,30.8L136.8,30.8z"/>
		<path class="st0" d="M134.7,39.1l8.8-5.7l1.2,1.9l-7,4.5l2.8,4.4l-1.8,1.1L134.7,39.1z"/>
		<path class="st0" d="M139.9,47.5l9.5-4.3l3.2,7.2l-1.9,0.8l-2.3-5.1l-1.9,0.9l2,4.5l-1.9,0.8l-2-4.5l-2,0.9l2.3,5.2l-1.9,0.8
			L139.9,47.5z"/>
	</g>
	<g>
		<path class="st0" d="M5.4,76.9l2.4,0l0,2.4l-2.4,0L5.4,76.9z"/>
		<path class="st0" d="M7.8,98.4l-0.5-1.7l-3,0.8l-0.6-2.2l10.1-2.7l1.1,4.1c0.7,2.4-0.4,4.2-2.4,4.8l0,0
			C10.1,102.1,8.4,100.6,7.8,98.4z M11.8,99.3c1-0.3,1.3-1.1,1-2.2l-0.5-1.7l-3.1,0.8l0.5,1.8C10.1,99,10.9,99.5,11.8,99.3
			L11.8,99.3z"/>
		<path class="st0" d="M7.3,106.8l9.5-4.2l0.9,2.1l-7.6,3.4l2.1,4.8l-1.9,0.8L7.3,106.8z"/>
		<path class="st0" d="M16.3,123.6l1.4-2.1l-2.4-3.7l-2.5,0.5l-1.3-2l11.2-2l1.2,1.8l-6.3,9.5L16.3,123.6z M21.1,116.7l-3.6,0.7
			l1.5,2.3L21.1,116.7z"/>
		<path class="st0" d="M25.1,133.9l1.3-8.2l-4.8,4.6l-1.6-1.6l7.6-7.2l1.5,1.5l-1.3,8l4.7-4.4l1.6,1.6l-7.6,7.2L25.1,133.9z"/>
		<path class="st0" d="M30,138.3l6.3-8.3l6.3,4.7l-1.2,1.6l-4.5-3.4l-1.3,1.7l3.9,3l-1.2,1.6l-3.9-3l-1.3,1.7l4.5,3.4l-1.2,1.6
			L30,138.3z"/>
		<path class="st0" d="M47.9,140.2l-3.9,7.3l-2-1.1l3.9-7.3l-2.8-1.5l1-1.9l7.6,4.1l-1,1.9L47.9,140.2z"/>
		<path class="st0" d="M62,150.7l0.5-2.3l2.4,0.5l-0.5,2.3L62,150.7z"/>
		<path class="st0" d="M83.5,153l-1.7,0.1l0.2,3.1l-2.3,0.1L79.1,146l4.3-0.2c2.5-0.1,4.1,1.3,4.2,3.4l0,0
			C87.7,151.6,85.9,152.9,83.5,153z M85.2,149.3c-0.1-1-0.8-1.5-1.9-1.5l-1.8,0.1l0.2,3.2l1.8-0.1C84.7,150.9,85.3,150.2,85.2,149.3
			L85.2,149.3z"/>
		<path class="st0" d="M97.8,154.2l-2.9-2.8l-1.8,0.4l0.7,3.3l-2.2,0.5l-2.1-10.2l4.7-1c2.4-0.5,4.1,0.5,4.5,2.6l0,0
			c0.3,1.6-0.3,2.9-1.5,3.6l3.2,3.1L97.8,154.2z M96.5,147.5c-0.2-1-1-1.3-2.1-1.1l-2.2,0.5l0.6,2.9l2.3-0.5
			C96.1,149.1,96.7,148.4,96.5,147.5L96.5,147.5z"/>
		<path class="st0" d="M109.1,150.8c-3,1.2-6-0.2-7.1-2.9l0,0c-1.1-2.7,0.1-5.9,3.1-7.1c3-1.2,6,0.2,7.1,2.9l0,0
			C113.3,146.5,112,149.6,109.1,150.8z M110,144.6c-0.7-1.7-2.4-2.5-4.2-1.9c-1.7,0.7-2.4,2.5-1.7,4.2l0,0c0.7,1.7,2.4,2.5,4.2,1.9
			C110,148.1,110.7,146.3,110,144.6L110,144.6z"/>
		<path class="st0" d="M121,144.7c-1.3,0.8-3,1.2-4.6,0.9l0.3-2.1c1.2,0.2,2.3,0.1,3.3-0.6c0.8-0.5,1.1-1.1,0.8-1.6l0,0
			c-0.3-0.5-0.8-0.6-2.5,0c-2.1,0.7-3.5,0.9-4.6-0.9l0,0c-1-1.6-0.4-3.5,1.4-4.6c1.3-0.8,2.6-1.1,4-0.9l-0.1,2.1
			c-1.1-0.1-2.1,0.1-2.8,0.6c-0.7,0.5-0.9,1-0.7,1.5l0,0c0.4,0.6,0.9,0.5,2.6,0c2.1-0.6,3.5-0.6,4.5,0.9l0,0
			C123.7,141.7,122.9,143.5,121,144.7z"/>
		<path class="st0" d="M128.5,135.1l-1.3,1.1l2,2.4l-1.7,1.5l-6.8-7.9l3.2-2.8c1.9-1.6,4-1.5,5.4,0.2l0,0
			C130.9,131.4,130.3,133.6,128.5,135.1z M127.6,131.1c-0.7-0.8-1.6-0.7-2.4,0l-1.3,1.1l2.1,2.4l1.4-1.2
			C128.1,132.8,128.2,131.8,127.6,131.1L127.6,131.1z"/>
		<path class="st0" d="M136.4,132.1l-7.9-6.8l5.1-6l1.5,1.3l-3.6,4.2l1.6,1.4l3.2-3.7l1.5,1.3l-3.2,3.7l1.7,1.4l3.7-4.3l1.5,1.3
			L136.4,132.1z"/>
		<path class="st0" d="M147.3,117.3l-4,0.2l-0.9,1.5l2.8,1.7l-1.2,2l-8.9-5.5l2.5-4.1c1.3-2.1,3.2-2.7,5-1.5l0,0
			c1.4,0.9,1.9,2.2,1.6,3.6l4.5-0.2L147.3,117.3z M141.5,113.7c-0.8-0.5-1.6-0.2-2.2,0.8l-1.2,1.9l2.5,1.6l1.2-2
			C142.5,115,142.3,114.1,141.5,113.7L141.5,113.7z"/>
		<path class="st0" d="M150.3,111.6l-9.5-4.3l0.9-2.1l9.5,4.3L150.3,111.6z"/>
		<path class="st0" d="M146.5,98.4l7.9,2.5l-0.7,2.2l-7.9-2.5l-1,3l-2-0.6l2.6-8.2l2,0.6L146.5,98.4z"/>
		<path class="st0" d="M152.9,88.3l4.1,0.6l-0.3,2.3l-4.1-0.6l-6.8,3l0.4-2.7l4.5-1.8l-3.8-3.1l0.4-2.6L152.9,88.3z"/>
		<path class="st0" d="M153.8,70.3l-2.4,0.3l-0.3-2.4l2.4-0.3L153.8,70.3z"/>
	</g>
</g>
</svg>
