<?xml version="1.0" encoding="utf-8"?>
<!-- Generator: Adobe Illustrator 20.1.0, SVG Export Plug-In . SVG Version: 6.00 Build 0)  -->
<svg version="1.1" id="Layer_1" xmlns="http://www.w3.org/2000/svg" xmlns:xlink="http://www.w3.org/1999/xlink" x="0px" y="0px"
	 viewBox="0 0 182 40" style="enable-background:new 0 0 182 40;" xml:space="preserve">
<style type="text/css">
	.st0{fill:#5EB35F;}
</style>
<g>
	<g>
		<path class="st0" d="M22.5,4c0.2-0.7,0.5-2,0.7-2.6c0-0.2-0.1-0.3-0.3-0.3l-7.8,0L1.5,25.8l3.9,6c0,0,6.5-0.5,9.6-0.8l0,4.4
			c-0.2,0.8-0.5,2-0.6,2.6c0,0.2,0.1,0.4,0.3,0.3l8.2-0.7c0.2,0,0.3-0.2,0.2-0.4c-0.2-0.6-0.5-1.7-0.7-2.4l0-4.6l1.4-0.1
			c0.1,0,0.2-0.1,0.3-0.3l0.6-5.5c0-0.2-0.1-0.3-0.3-0.3l-1.9,0.1L22.5,4z M15.1,13.4l0,11.2c-1.3,0.1-3.5,0.2-5.3,0.3
			C9.8,24.9,13.6,17.2,15.1,13.4z"/>
		<path class="st0" d="M46.7,1H29.4c-0.2,0-0.3,0.2-0.3,0.3C29.3,2,29.6,3.3,29.8,4l0,30.4c-0.2,0.7-0.5,1.9-0.6,2.5
			c0,0.2,0.1,0.4,0.3,0.3l8.2-0.5c0.2,0,0.3-0.2,0.3-0.4c-0.2-0.5-0.4-1.5-0.6-2.4l0.1-10.4c2.7-0.1,8-0.3,8-0.3l6.8-6.4l0-10.9
			L46.7,1z M42.2,16.7l-5,0.1l0-8.3c1.5,0,3.8,0,5.3,0l2.3,1.8l0,4.3C44.8,14.7,42.3,16.8,42.2,16.7z"/>
		<path class="st0" d="M76.7,1L56.4,1c-0.2,0-0.3,0.2-0.3,0.4C56.3,2,56.7,3.3,56.9,4l0,28.8c-0.2,0.7-0.7,2-0.9,2.6
			c-0.1,0.2,0.1,0.4,0.3,0.4l9.5-0.3c0.2,0,0.3-0.2,0.2-0.4c-0.3-0.6-0.8-1.7-1.1-2.6l0-9.9c1,0,2.3,0,3.3-0.1
			c0.7,0.2,2.1,0.9,2.7,1.3c0.2,0.1,0.4,0,0.4-0.2l0-8.3c0-0.2-0.2-0.4-0.4-0.2c-0.7,0.4-2,1.1-2.8,1.3c-1,0-2.3,0-3.3,0l0-7.9
			c2.3,0,5.1,0,7.4,0l4.1,1.3c0.2,0.1,0.4-0.1,0.4-0.3L76.7,1z"/>
		<path class="st0" d="M101.5,5.8C99.8,4.3,96,1,96,1l-9.6,0l-5.7,5l0,24.1l5.8,5H96c0,0,3.7-3.3,5.5-4.9L101.5,5.8z M90,27.8
			c-0.4-0.2-1.8-1.6-1.8-1.6V10.2L90,8.6c1,0,1.2,0,2.2,0l1.9,1.6l0,16.1c0,0-1.4,1.4-1.9,1.6C91.3,27.8,91,27.8,90,27.8z"/>
		<path class="st0" d="M128.1,5.8c-1.8-1.5-5.5-4.8-5.5-4.8L113,1l-5.7,5l0,24.1l5.8,5.3l9.4,0.2c0,0,4-3.8,5.7-5.4L128.1,5.8z
			 M116.6,27.8c-0.4-0.2-1.8-1.6-1.8-1.6V10.2l1.9-1.6c1,0,1.2,0,2.2,0l1.9,1.6l0,16.1c0,0-1.4,1.4-1.9,1.6
			C117.9,27.8,117.6,27.8,116.6,27.8z"/>
		<path class="st0" d="M154.2,6.6c-1.8-1.8-3.8-3.6-5.7-5.4l-0.2-0.2l-0.3,0c-5.3,0-9.1,0-14.4,0l-0.4,0c-0.2,0-0.3,0.2-0.3,0.3
			c0.1,0.6,0.5,1.9,0.6,2.6v29.1c-0.2,0.7-0.5,2-0.7,2.7c0,0.2,0.1,0.3,0.3,0.3l15.1,0.9c0,0,4.1-3.5,5.9-5.1l0.3-0.2l0-24.8
			L154.2,6.6z M144.1,29.1c-1.3-0.1-3-0.2-3-0.2l0-20.5c1.8,0,1.6,0,2.9,0l2.5,2.3l0,16.3L144.1,29.1z"/>
		<path class="st0" d="M167.4,11.5l0-1.7l1.8-1.4l7,0.5l3.8,1.3c0.2,0.1,0.4-0.1,0.4-0.3l-1.1-7.7l-13.9-1.2l-5.7,5.4l0,7.3l2.2,4
			l9.3,6.9l1.8,2.6l0,1.8c0,0-2.2,2-2.2,2.1c0,0-6.9-0.5-6.9-0.5l-3.9-1.6c-0.2-0.1-0.4,0.1-0.4,0.3l0.8,8.5l14.2,1.2l5.8-4.7l0-9.7
			l-2.4-4.4l-9.6-7L167.4,11.5z"/>
	</g>
</g>
</svg>
